<svg xmlns="http://www.w3.org/2000/svg" viewBox="0 0 512 512">
  <defs>
    <linearGradient id="grad" x1="0%" y1="0%" x2="100%" y2="100%">
      <stop offset="0%" style="stop-color:#2563eb;stop-opacity:1" />
      <stop offset="100%" style="stop-color:#7c3aed;stop-opacity:1" />
    </linearGradient>
    <filter id="shadow" x="-20%" y="-20%" width="140%" height="140%">
      <feGaussianBlur in="SourceAlpha" stdDeviation="12"/>
      <feOffset dx="0" dy="8" result="offsetblur"/>
      <feComponentTransfer>
        <feFuncA type="linear" slope="0.3"/>
      </feComponentTransfer>
      <feMerge>
        <feMergeNode/>
        <feMergeNode in="SourceGraphic"/>
      </feMerge>
    </filter>
  </defs>
  
  <!-- Square Background -->
  <rect x="0" y="0" width="512" height="512" fill="url(#grad)" />
  
  <!-- Game Console Icon -->
  <g filter="url(#shadow)" fill="white" transform="translate(256, 256) scale(0.65) translate(-256, -304)">
    <path d="M448 192H64C28.7 192 0 220.7 0 256v96c0 35.3 28.7 64 64 64h384c35.3 0 64-28.7 64-64v-96c0-35.3-28.7-64-64-64zM128 352h-32v32c0 8.8-7.2 16-16 16s-16-7.2-16-16v-32H32c-8.8 0-16-7.2-16-16s7.2-16 16-16h32v-32c0-8.8 7.2-16 16-16s16 7.2 16 16v32h32c8.8 0 16 7.2 16 16s-7.2 16-16 16zm256 32c-17.7 0-32-14.3-32-32s14.3-32 32-32 32 14.3 32 32-14.3 32-32 32zm64-64c-17.7 0-32-14.3-32-32s14.3-32 32-32 32 14.3 32 32-14.3 32-32 32z"/>
  </g>
</svg>

