<svg xmlns="http://www.w3.org/2000/svg" viewBox="0 0 512 512">
  <defs>
    <linearGradient id="grad" x1="0%" y1="0%" x2="100%" y2="100%">
      <stop offset="0%" style="stop-color:#2563eb;stop-opacity:1" />
      <stop offset="100%" style="stop-color:#7c3aed;stop-opacity:1" />
    </linearGradient>
    <filter id="shadow" x="-20%" y="-20%" width="140%" height="140%">
      <feGaussianBlur in="SourceAlpha" stdDeviation="10"/>
      <feOffset dx="0" dy="6" result="offsetblur"/>
      <feComponentTransfer>
        <feFuncA type="linear" slope="0.25"/>
      </feComponentTransfer>
      <feMerge>
        <feMergeNode/>
        <feMergeNode in="SourceGraphic"/>
      </feMerge>
    </filter>
  </defs>
  
  <!-- Square Background (No rounded corners) -->
  <rect x="0" y="0" width="512" height="512" fill="url(#grad)" />
  
  <g filter="url(#shadow)" fill="white" transform="translate(0, -10)">
    <path d="M376 192H136c-48.6 0-88 39.4-88 88v32c0 61.9 50.1 112 112 112h192c61.9 0 112-50.1 112-112v-32c0-48.6-39.4-88-88-88zM144 320c-17.7 0-32-14.3-32-32s14.3-32 32-32 32 14.3 32 32-14.3 32-32 32zm224 0c-17.7 0-32-14.3-32-32s14.3-32 32-32 32 14.3 32 32-14.3 32-32 32zm-152-72c-13.3 0-24-10.7-24-24s10.7-24 24-24 24 10.7 24 24-10.7 24-24 24z"/>
    <path d="M256 160v32" stroke="white" stroke-width="24" stroke-linecap="round" opacity="0.3"/>
    <path d="M192 240h128" stroke="white" stroke-width="4" opacity="0.1"/>
  </g>
</svg>
