<svg xmlns="http://www.w3.org/2000/svg" viewBox="0 0 512 512">
  <defs>
    <linearGradient id="grad" x1="0%" y1="0%" x2="100%" y2="100%">
      <stop offset="0%" style="stop-color:#2563eb;stop-opacity:1" />
      <stop offset="100%" style="stop-color:#7c3aed;stop-opacity:1" />
    </linearGradient>
    <filter id="shadow" x="-20%" y="-20%" width="140%" height="140%">
      <feGaussianBlur in="SourceAlpha" stdDeviation="10"/>
      <feOffset dx="0" dy="5" result="offsetblur"/>
      <feComponentTransfer>
        <feFuncA type="linear" slope="0.3"/>
      </feComponentTransfer>
      <feMerge>
        <feMergeNode/>
        <feMergeNode in="SourceGraphic"/>
      </feMerge>
    </filter>
  </defs>
  
  <rect x="32" y="32" width="448" height="448" rx="128" ry="128" fill="url(#grad)" />
  
  <g transform="translate(106, 136) scale(0.6)" fill="white" filter="url(#shadow)">
     <path d="M438.6 105.4c12.5 12.5 12.5 32.8 0 45.3l-256 256c-12.5 12.5-32.8 12.5-45.3 0l-128-128c-12.5-12.5-12.5-32.8 0-45.3s32.8-12.5 45.3 0L160 338.7 393.4 105.4c12.5-12.5 32.8-12.5 45.3 0z"/>
     <path d="M352 96l64 0c17.7 0 32 14.3 32 32l0 256c0 17.7-14.3 32-32 32l-64 0c-17.7 0-32-14.3-32-32l0-256c0-17.7 14.3-32 32-32zm-192 0l64 0c17.7 0 32 14.3 32 32l0 256c0 17.7-14.3 32-32 32l-64 0c-17.7 0-32-14.3-32-32l0-256c0-17.7 14.3-32 32-32z"/>
     <!-- Gamepad Icon path simplified/stylized -->
     <path d="M352 64H160C71.6 64 0 135.6 0 224v32c0 88.4 71.6 160 160 160h192c88.4 0 160-71.6 160-160v-32c0-88.4-71.6-160-160-160zM144 248c-22.1 0-40-17.9-40-40s17.9-40 40-40 40 17.9 40 40-17.9 40-40 40zm224 0c-22.1 0-40-17.9-40-40s17.9-40 40-40 40 17.9 40 40-17.9 40-40 40z" />
  </g>
</svg>
